<svg width="238" height="21" viewBox="0 0 238 21" fill="none" xmlns="http://www.w3.org/2000/svg">
<path fill-rule="evenodd" clip-rule="evenodd" d="M40.4792 10.5048C40.4808 12.5728 39.8755 14.5948 38.7398 16.315C37.6041 18.0353 35.9891 19.3766 34.099 20.1691C32.209 20.9616 30.1287 21.1698 28.1215 20.7674C26.1143 20.3649 24.2703 19.37 22.8228 17.9083C21.3752 16.4466 20.3892 14.5838 19.9894 12.5557C19.8749 11.975 19.8099 11.3883 19.7939 10.8017C19.7192 13.3472 18.686 15.7726 16.8989 17.5786C15.0424 19.4547 12.5246 20.5087 9.89914 20.5087H0V0.500758H9.89914C12.5246 0.500758 15.0424 1.55474 16.8989 3.43084C18.6879 5.23879 19.7214 7.6675 19.7942 10.216C19.8298 8.95077 20.0926 7.69594 20.5766 6.5144C21.3594 4.60367 22.6853 2.97047 24.3866 1.82139C26.0879 0.672302 28.0883 0.05896 30.1346 0.05896C32.8754 0.0633626 35.5028 1.16509 37.4416 3.12286C39.3804 5.08064 40.4727 7.73497 40.4792 10.5048ZM66.4232 0.500172L63.6102 10.9626L60.8054 0.500172H55.6414L52.7954 10.996L49.9824 0.500172H42.0136L49.042 20.5081H55.6414L58.2317 12.3966L60.8054 20.5081H67.4049L74.392 0.500172H66.4232ZM95.2627 0.500172V20.5081H87.7559V13.3469H83.0785V20.5081H75.5717V0.500172H83.0785V7.66136H87.7641V0.500172H95.2627ZM98.0757 0.500172V20.5081H105.574V0.500172H98.0757ZM121.99 14.7808V20.5081H108.387V0.500172H115.894V14.8141L121.99 14.7808ZM131.362 8.10317V6.1941L137.458 6.22743V0.500172H123.863V20.5081H137.458V14.7808H131.362V12.8717H136.055V8.10317H131.362Z" fill="url(#paint0_linear_61322:3225)"/>
<path d="M161.199 0.625212L158.527 0.216675C158.444 0.216675 158.362 0.216697 158.362 0.291727L157.223 1.76733C157.165 1.86489 157.139 1.97881 157.149 2.09242C157.149 2.17578 157.066 2.34253 156.984 2.25916L156.093 2.01742C155.928 2.01742 155.771 2.01742 155.689 2.17581L152.043 6.9277C151.96 7.01107 151.878 7.01105 151.721 7.01105L150.343 6.35247C150.283 6.31197 150.213 6.29034 150.141 6.29034C150.069 6.29034 149.999 6.31197 149.939 6.35247L149.205 6.84431C149.145 6.8859 149.075 6.90821 149.003 6.90821C148.93 6.90821 148.86 6.8859 148.801 6.84431L148.479 6.67756C148.426 6.65354 148.368 6.641 148.309 6.64072C148.251 6.64045 148.193 6.65246 148.14 6.67599C148.086 6.69951 148.038 6.73406 147.999 6.77739C147.959 6.82073 147.929 6.87191 147.91 6.9277L147.67 8.06982C147.639 8.19116 147.646 8.31918 147.688 8.43683C147.731 8.55449 147.808 8.65617 147.91 8.72839L148.561 9.13688L150.261 10.204L151.086 10.6958C151.2 10.7616 151.332 10.789 151.462 10.774C151.593 10.759 151.715 10.7024 151.812 10.6125L153.189 9.38697C153.313 9.31135 153.459 9.28188 153.602 9.30362L154.006 9.54536C154.163 9.62873 154.328 9.62875 154.41 9.46202L155.136 8.81174C155.186 8.75698 155.252 8.71953 155.325 8.70458C155.397 8.68963 155.473 8.69796 155.54 8.72839L156.596 9.22028C156.761 9.30364 156.918 9.22024 157.083 9.13688L157.57 8.48665L161.216 3.73476C161.372 3.48466 161.298 3.15953 160.968 3.15953L160.143 3.00113C159.978 3.00113 159.904 2.75103 159.978 2.5843L161.282 1.0337C161.447 0.866966 161.356 0.625212 161.199 0.625212Z" fill="white"/>
<path d="M149.073 10.204C148.99 10.1206 148.908 10.2039 148.908 10.2873L149.312 11.3461V11.5962L148.99 12.9884C148.985 13.0324 148.99 13.077 149.004 13.1189C149.018 13.1608 149.042 13.1988 149.073 13.2302L150.038 13.9721C150.085 14.0086 150.143 14.0284 150.203 14.0284C150.263 14.0284 150.321 14.0086 150.368 13.9721L151.416 13.0718C151.448 13.0403 151.487 13.0164 151.53 13.002C151.573 12.9876 151.618 12.9829 151.663 12.9884L152.793 12.8217C152.876 12.8217 152.876 12.7383 152.793 12.6549L149.073 10.204Z" fill="white"/>
<path d="M148.718 13.7221C148.704 13.7032 148.686 13.6878 148.665 13.6771C148.645 13.6665 148.622 13.661 148.598 13.661C148.575 13.661 148.552 13.6665 148.531 13.6771C148.511 13.6878 148.493 13.7032 148.479 13.7221L147.654 14.1306C147.632 14.1306 147.611 14.1394 147.596 14.155C147.58 14.1707 147.571 14.1919 147.571 14.214L145.79 18.6324H145.872L146.276 18.474V18.5574L144.981 20.6832C144.981 20.7666 144.981 20.7666 145.055 20.7666L149.592 16.0981C149.675 16.0981 149.675 16.0147 149.675 15.9313L149.757 14.7058C149.757 14.6225 149.757 14.5391 149.675 14.5391L148.718 13.7221Z" fill="white"/>
<path d="M184.107 14.7813V20.5086H165.827C165.827 20.5086 174.522 10.8548 175.668 8.58721C176.576 6.80317 175.611 5.72775 174.728 5.72775C173.845 5.72775 172.855 6.23628 172.855 8.58721L165.885 8.11202C165.885 3.64359 168.987 0.00878906 174.728 0.00878906C180.263 0.00878906 183.637 2.95997 183.637 7.16163C183.637 9.77933 181.41 12.7639 178.952 14.7897L184.107 14.7813Z" fill="white"/>
<path d="M204.731 10.5047C204.731 16.2903 200.944 21.0005 195.351 21.0005C189.758 21.0005 185.98 16.2903 185.98 10.5047C185.98 4.71908 189.758 0.0172119 195.351 0.0172119C200.944 0.0172119 204.731 4.66906 204.731 10.5047Z" fill="white"/>
<path d="M224.884 14.7813V20.5086H206.603C206.603 20.5086 215.298 10.8548 216.445 8.58721C217.352 6.80317 216.387 5.72775 215.504 5.72775C214.622 5.72775 213.632 6.23628 213.632 8.58721L206.661 8.11202C206.661 3.64359 209.763 0.00878906 215.504 0.00878906C221.04 0.00878906 224.413 2.95997 224.413 7.16163C224.413 9.77933 222.186 12.7639 219.728 14.7897L224.884 14.7813Z" fill="white"/>
<path d="M238 0V20.5081H230.501V7.16948L227.202 7.58631V1.83402L238 0Z" fill="white"/>
<defs>
<linearGradient id="paint0_linear_61322:3225" x1="-2.81247e-06" y1="0.554914" x2="45.0945" y2="76.1005" gradientUnits="userSpaceOnUse">
<stop stop-color="#FF008E"/>
<stop offset="1" stop-color="#FFCD1E"/>
</linearGradient>
</defs>
</svg>
